<mxfile host="app.diagrams.net" agent="Mozilla/5.0 (X11; Linux x86_64; rv:134.0) Gecko/20100101 Firefox/134.0" version="26.0.11">
  <diagram name="Page-1" id="CnzBxppS9xw1QtROezgS">
    <mxGraphModel dx="1562" dy="820" grid="1" gridSize="10" guides="1" tooltips="1" connect="1" arrows="1" fold="1" page="1" pageScale="1" pageWidth="1169" pageHeight="827" math="0" shadow="0">
      <root>
        <mxCell id="0" />
        <mxCell id="1" parent="0" />
        <mxCell id="Xu7zDjBhW1PDWsa4Hlu6-13" value="" style="ellipse;whiteSpace=wrap;html=1;aspect=fixed;strokeWidth=5;" vertex="1" parent="1">
          <mxGeometry x="660" y="209" width="490" height="490" as="geometry" />
        </mxCell>
        <mxCell id="Xu7zDjBhW1PDWsa4Hlu6-11" value="" style="ellipse;whiteSpace=wrap;html=1;aspect=fixed;strokeWidth=5;" vertex="1" parent="1">
          <mxGeometry x="30" y="209" width="490" height="490" as="geometry" />
        </mxCell>
        <mxCell id="Xu7zDjBhW1PDWsa4Hlu6-1" value="" style="shape=mxgraph.cisco.servers.fileserver;sketch=0;html=1;pointerEvents=1;dashed=0;fillColor=light-dark(#1a5fb4, #5cb3dc);strokeColor=#ffffff;strokeWidth=2;verticalLabelPosition=bottom;verticalAlign=top;align=center;outlineConnect=0;" vertex="1" parent="1">
          <mxGeometry x="862.66" y="240" width="83.23" height="120" as="geometry" />
        </mxCell>
        <mxCell id="Xu7zDjBhW1PDWsa4Hlu6-2" value="" style="shape=mxgraph.cisco.servers.fileserver;sketch=0;html=1;pointerEvents=1;dashed=0;fillColor=light-dark(#1a5fb4, #5cb3dc);strokeColor=#ffffff;strokeWidth=2;verticalLabelPosition=bottom;verticalAlign=top;align=center;outlineConnect=0;" vertex="1" parent="1">
          <mxGeometry x="735.88" y="440" width="83.23" height="120" as="geometry" />
        </mxCell>
        <mxCell id="Xu7zDjBhW1PDWsa4Hlu6-3" value="" style="shape=mxgraph.cisco.servers.fileserver;sketch=0;html=1;pointerEvents=1;dashed=0;fillColor=light-dark(#1a5fb4, #5cb3dc);strokeColor=#ffffff;strokeWidth=2;verticalLabelPosition=bottom;verticalAlign=top;align=center;outlineConnect=0;" vertex="1" parent="1">
          <mxGeometry x="1010" y="440" width="83.23" height="120" as="geometry" />
        </mxCell>
        <mxCell id="Xu7zDjBhW1PDWsa4Hlu6-4" value="" style="shape=mxgraph.cisco.servers.fileserver;sketch=0;html=1;pointerEvents=1;dashed=0;fillColor=light-dark(#1a5fb4, #5cb3dc);strokeColor=#ffffff;strokeWidth=2;verticalLabelPosition=bottom;verticalAlign=top;align=center;outlineConnect=0;" vertex="1" parent="1">
          <mxGeometry x="233.38" y="250" width="83.23" height="120" as="geometry" />
        </mxCell>
        <mxCell id="Xu7zDjBhW1PDWsa4Hlu6-5" value="" style="shape=mxgraph.cisco.servers.fileserver;sketch=0;html=1;pointerEvents=1;dashed=0;fillColor=light-dark(#1a5fb4, #5cb3dc);strokeColor=#ffffff;strokeWidth=2;verticalLabelPosition=bottom;verticalAlign=top;align=center;outlineConnect=0;" vertex="1" parent="1">
          <mxGeometry x="370" y="450" width="83.23" height="120" as="geometry" />
        </mxCell>
        <mxCell id="Xu7zDjBhW1PDWsa4Hlu6-6" value="&lt;b&gt;&lt;font style=&quot;font-size: 21px;&quot;&gt;ES-3BB-DC&lt;/font&gt;&lt;/b&gt;" style="text;html=1;align=center;verticalAlign=middle;whiteSpace=wrap;rounded=0;" vertex="1" parent="1">
          <mxGeometry x="205.00000000000006" y="380" width="140" height="30" as="geometry" />
        </mxCell>
        <mxCell id="Xu7zDjBhW1PDWsa4Hlu6-7" value="&lt;b&gt;&lt;font style=&quot;font-size: 21px;&quot;&gt;ES-3BB-JUMP&lt;/font&gt;&lt;/b&gt;" style="text;html=1;align=center;verticalAlign=middle;whiteSpace=wrap;rounded=0;" vertex="1" parent="1">
          <mxGeometry x="293.23" y="580" width="160" height="30" as="geometry" />
        </mxCell>
        <mxCell id="Xu7zDjBhW1PDWsa4Hlu6-8" value="&lt;b&gt;&lt;font style=&quot;font-size: 21px;&quot;&gt;WIEN-3BB-DC1&lt;/font&gt;&lt;/b&gt;" style="text;html=1;align=center;verticalAlign=middle;whiteSpace=wrap;rounded=0;" vertex="1" parent="1">
          <mxGeometry x="816.77" y="370" width="175" height="30" as="geometry" />
        </mxCell>
        <mxCell id="Xu7zDjBhW1PDWsa4Hlu6-9" value="&lt;b&gt;&lt;font style=&quot;font-size: 21px;&quot;&gt;WIEN-3BB-JUMP&lt;/font&gt;&lt;/b&gt;" style="text;html=1;align=center;verticalAlign=middle;whiteSpace=wrap;rounded=0;" vertex="1" parent="1">
          <mxGeometry x="910" y="570" width="195" height="30" as="geometry" />
        </mxCell>
        <mxCell id="Xu7zDjBhW1PDWsa4Hlu6-10" value="&lt;b&gt;&lt;font style=&quot;font-size: 21px;&quot;&gt;WIEN-3BB-DC2&lt;/font&gt;&lt;/b&gt;" style="text;html=1;align=center;verticalAlign=middle;whiteSpace=wrap;rounded=0;" vertex="1" parent="1">
          <mxGeometry x="710" y="570" width="175" height="30" as="geometry" />
        </mxCell>
        <mxCell id="Xu7zDjBhW1PDWsa4Hlu6-14" value="" style="shape=mxgraph.cisco.servers.fileserver;sketch=0;html=1;pointerEvents=1;dashed=0;fillColor=light-dark(#1a5fb4, #5cb3dc);strokeColor=#ffffff;strokeWidth=2;verticalLabelPosition=bottom;verticalAlign=top;align=center;outlineConnect=0;" vertex="1" parent="1">
          <mxGeometry x="94.26999999999998" y="450" width="83.23" height="120" as="geometry" />
        </mxCell>
        <mxCell id="Xu7zDjBhW1PDWsa4Hlu6-15" value="&lt;b&gt;&lt;font style=&quot;font-size: 21px;&quot;&gt;ES-3BB-RDS&lt;/font&gt;&lt;/b&gt;" style="text;html=1;align=center;verticalAlign=middle;whiteSpace=wrap;rounded=0;" vertex="1" parent="1">
          <mxGeometry x="70" y="580" width="175" height="30" as="geometry" />
        </mxCell>
        <mxCell id="Xu7zDjBhW1PDWsa4Hlu6-17" value="" style="endArrow=classic;startArrow=classic;html=1;rounded=0;exitX=1;exitY=0.5;exitDx=0;exitDy=0;strokeWidth=5;entryX=0;entryY=0.5;entryDx=0;entryDy=0;" edge="1" parent="1" source="Xu7zDjBhW1PDWsa4Hlu6-11" target="Xu7zDjBhW1PDWsa4Hlu6-13">
          <mxGeometry width="50" height="50" relative="1" as="geometry">
            <mxPoint x="560" y="490" as="sourcePoint" />
            <mxPoint x="620" y="410" as="targetPoint" />
          </mxGeometry>
        </mxCell>
        <mxCell id="Xu7zDjBhW1PDWsa4Hlu6-18" value="&lt;div&gt;&lt;font style=&quot;font-size: 30px;&quot;&gt;&lt;b&gt;Site Wien&lt;/b&gt;&lt;/font&gt;&lt;/div&gt;&lt;div&gt;&lt;font style=&quot;font-size: 30px;&quot;&gt;&lt;b&gt;wien.3bb-testlab.at&lt;/b&gt;&lt;/font&gt;&lt;/div&gt;" style="text;html=1;align=center;verticalAlign=middle;whiteSpace=wrap;rounded=0;" vertex="1" parent="1">
          <mxGeometry x="759.27" y="110" width="290" height="80" as="geometry" />
        </mxCell>
        <mxCell id="Xu7zDjBhW1PDWsa4Hlu6-19" value="&lt;div&gt;&lt;font style=&quot;font-size: 30px;&quot;&gt;&lt;b&gt;Site Eisenstadt&lt;/b&gt;&lt;/font&gt;&lt;/div&gt;&lt;div&gt;&lt;font style=&quot;font-size: 30px;&quot;&gt;&lt;b&gt;eisenstadt.3bb-testlab.at&lt;/b&gt;&lt;/font&gt;&lt;/div&gt;" style="text;html=1;align=center;verticalAlign=middle;whiteSpace=wrap;rounded=0;" vertex="1" parent="1">
          <mxGeometry x="95" y="120" width="360" height="70" as="geometry" />
        </mxCell>
        <mxCell id="Xu7zDjBhW1PDWsa4Hlu6-20" value="&lt;span&gt;Site-Link&lt;/span&gt;" style="text;html=1;align=center;verticalAlign=middle;whiteSpace=wrap;rounded=0;strokeWidth=1;fontSize=21;fontStyle=1" vertex="1" parent="1">
          <mxGeometry x="497" y="410" width="175" height="30" as="geometry" />
        </mxCell>
      </root>
    </mxGraphModel>
  </diagram>
</mxfile>
